<mxfile host="app.diagrams.net" agent="Mozilla/5.0 (Windows NT 10.0; Win64; x64) AppleWebKit/537.36 (KHTML, like Gecko) Chrome/129.0.0.0 Safari/537.36" version="24.7.17">
  <diagram name="Page-1" id="oNW0ThlsWllIaVmUvsVB">
    <mxGraphModel dx="2284" dy="892" grid="1" gridSize="10" guides="1" tooltips="1" connect="1" arrows="1" fold="1" page="1" pageScale="1" pageWidth="850" pageHeight="1100" math="0" shadow="0">
      <root>
        <mxCell id="0" />
        <mxCell id="1" parent="0" />
        <mxCell id="t136qoIJwkl42ZQbLCPM-1" value="" style="html=1;dashed=0;whiteSpace=wrap;shape=mxgraph.dfd.externalEntity" vertex="1" parent="1">
          <mxGeometry x="50" y="195" width="100" height="100" as="geometry" />
        </mxCell>
        <mxCell id="t136qoIJwkl42ZQbLCPM-2" value="admin" style="autosize=1;part=1;resizable=0;strokeColor=inherit;fillColor=inherit;gradientColor=inherit;" vertex="1" parent="t136qoIJwkl42ZQbLCPM-1">
          <mxGeometry width="60" height="30" relative="1" as="geometry">
            <mxPoint x="-5" y="10" as="offset" />
          </mxGeometry>
        </mxCell>
        <mxCell id="t136qoIJwkl42ZQbLCPM-3" value="1.0" style="swimlane;html=1;startSize=20;fontStyle=0;collapsible=0;horizontal=1;swimlaneLine=1;strokeWidth=2;swimlaneFillColor=#ffffff;whiteSpace=wrap;" vertex="1" parent="1">
          <mxGeometry x="240" y="195" width="220" height="100" as="geometry" />
        </mxCell>
        <mxCell id="t136qoIJwkl42ZQbLCPM-8" value="fetch all orders" style="text;html=1;align=center;verticalAlign=middle;whiteSpace=wrap;rounded=0;" vertex="1" parent="t136qoIJwkl42ZQbLCPM-3">
          <mxGeometry x="70" y="45" width="60" height="30" as="geometry" />
        </mxCell>
        <mxCell id="t136qoIJwkl42ZQbLCPM-4" value="Orders table" style="html=1;dashed=0;whiteSpace=wrap;shape=mxgraph.dfd.dataStoreID;align=left;spacingLeft=3;points=[[0,0],[0.5,0],[1,0],[0,0.5],[1,0.5],[0,1],[0.5,1],[1,1]];" vertex="1" parent="1">
          <mxGeometry x="300" y="90" width="100" height="30" as="geometry" />
        </mxCell>
        <mxCell id="t136qoIJwkl42ZQbLCPM-5" value="" style="endArrow=classic;html=1;rounded=0;" edge="1" parent="1">
          <mxGeometry width="50" height="50" relative="1" as="geometry">
            <mxPoint x="150" y="240" as="sourcePoint" />
            <mxPoint x="230" y="240" as="targetPoint" />
          </mxGeometry>
        </mxCell>
        <mxCell id="t136qoIJwkl42ZQbLCPM-7" value="" style="endArrow=classic;html=1;rounded=0;" edge="1" parent="1">
          <mxGeometry width="50" height="50" relative="1" as="geometry">
            <mxPoint x="340" y="120" as="sourcePoint" />
            <mxPoint x="340" y="190" as="targetPoint" />
          </mxGeometry>
        </mxCell>
        <mxCell id="t136qoIJwkl42ZQbLCPM-9" value="" style="endArrow=classic;html=1;rounded=0;" edge="1" parent="1">
          <mxGeometry width="50" height="50" relative="1" as="geometry">
            <mxPoint x="240" y="260" as="sourcePoint" />
            <mxPoint x="150" y="260" as="targetPoint" />
          </mxGeometry>
        </mxCell>
        <mxCell id="t136qoIJwkl42ZQbLCPM-10" value="orders" style="edgeLabel;html=1;align=center;verticalAlign=middle;resizable=0;points=[];" vertex="1" connectable="0" parent="t136qoIJwkl42ZQbLCPM-9">
          <mxGeometry x="0.2444" y="4" relative="1" as="geometry">
            <mxPoint as="offset" />
          </mxGeometry>
        </mxCell>
        <mxCell id="t136qoIJwkl42ZQbLCPM-11" value="2.0" style="swimlane;html=1;startSize=20;fontStyle=0;collapsible=0;horizontal=1;swimlaneLine=1;strokeWidth=2;swimlaneFillColor=#ffffff;whiteSpace=wrap;" vertex="1" parent="1">
          <mxGeometry x="220" y="420" width="220" height="100" as="geometry" />
        </mxCell>
        <mxCell id="t136qoIJwkl42ZQbLCPM-12" value="order id" style="text;html=1;align=center;verticalAlign=middle;whiteSpace=wrap;rounded=0;" vertex="1" parent="t136qoIJwkl42ZQbLCPM-11">
          <mxGeometry x="80" y="35" width="60" height="30" as="geometry" />
        </mxCell>
        <mxCell id="t136qoIJwkl42ZQbLCPM-13" value="" style="endArrow=classic;html=1;rounded=0;exitX=0;exitY=0;exitDx=55;exitDy=100;exitPerimeter=0;" edge="1" parent="1" source="t136qoIJwkl42ZQbLCPM-1">
          <mxGeometry width="50" height="50" relative="1" as="geometry">
            <mxPoint x="350" y="460" as="sourcePoint" />
            <mxPoint x="220" y="470" as="targetPoint" />
            <Array as="points">
              <mxPoint x="100" y="470" />
            </Array>
          </mxGeometry>
        </mxCell>
        <mxCell id="t136qoIJwkl42ZQbLCPM-19" value="add product to order" style="edgeLabel;html=1;align=center;verticalAlign=middle;resizable=0;points=[];" vertex="1" connectable="0" parent="t136qoIJwkl42ZQbLCPM-13">
          <mxGeometry x="-0.1115" y="-1" relative="1" as="geometry">
            <mxPoint as="offset" />
          </mxGeometry>
        </mxCell>
        <mxCell id="t136qoIJwkl42ZQbLCPM-14" value="3.0" style="swimlane;html=1;startSize=20;fontStyle=0;collapsible=0;horizontal=1;swimlaneLine=1;strokeWidth=2;swimlaneFillColor=#ffffff;whiteSpace=wrap;" vertex="1" parent="1">
          <mxGeometry x="520" y="430" width="220" height="100" as="geometry" />
        </mxCell>
        <mxCell id="t136qoIJwkl42ZQbLCPM-16" value="Add products to stock" style="text;html=1;align=center;verticalAlign=middle;whiteSpace=wrap;rounded=0;" vertex="1" parent="t136qoIJwkl42ZQbLCPM-14">
          <mxGeometry x="70" y="35" width="60" height="30" as="geometry" />
        </mxCell>
        <mxCell id="t136qoIJwkl42ZQbLCPM-15" value="" style="endArrow=classic;html=1;rounded=0;" edge="1" parent="1">
          <mxGeometry width="50" height="50" relative="1" as="geometry">
            <mxPoint x="440" y="469.5" as="sourcePoint" />
            <mxPoint x="520" y="470" as="targetPoint" />
          </mxGeometry>
        </mxCell>
        <mxCell id="t136qoIJwkl42ZQbLCPM-22" value="single order" style="edgeLabel;html=1;align=center;verticalAlign=middle;resizable=0;points=[];" vertex="1" connectable="0" parent="t136qoIJwkl42ZQbLCPM-15">
          <mxGeometry x="-0.0998" y="-1" relative="1" as="geometry">
            <mxPoint as="offset" />
          </mxGeometry>
        </mxCell>
        <mxCell id="t136qoIJwkl42ZQbLCPM-17" value="stock db" style="html=1;dashed=0;whiteSpace=wrap;shape=mxgraph.dfd.dataStoreID;align=left;spacingLeft=3;points=[[0,0],[0.5,0],[1,0],[0,0.5],[1,0.5],[0,1],[0.5,1],[1,1]];" vertex="1" parent="1">
          <mxGeometry x="840" y="465" width="100" height="65" as="geometry" />
        </mxCell>
        <mxCell id="t136qoIJwkl42ZQbLCPM-18" value="" style="endArrow=classic;html=1;rounded=0;" edge="1" parent="1">
          <mxGeometry width="50" height="50" relative="1" as="geometry">
            <mxPoint x="740" y="479.5" as="sourcePoint" />
            <mxPoint x="840" y="480" as="targetPoint" />
          </mxGeometry>
        </mxCell>
        <mxCell id="t136qoIJwkl42ZQbLCPM-20" value="" style="endArrow=classic;html=1;rounded=0;exitX=0.586;exitY=-0.01;exitDx=0;exitDy=0;exitPerimeter=0;" edge="1" parent="1" source="t136qoIJwkl42ZQbLCPM-3">
          <mxGeometry width="50" height="50" relative="1" as="geometry">
            <mxPoint x="370" y="200" as="sourcePoint" />
            <mxPoint x="370" y="120" as="targetPoint" />
          </mxGeometry>
        </mxCell>
        <mxCell id="t136qoIJwkl42ZQbLCPM-23" value="products table" style="html=1;dashed=0;whiteSpace=wrap;shape=mxgraph.dfd.dataStoreID;align=left;spacingLeft=3;points=[[0,0],[0.5,0],[1,0],[0,0.5],[1,0.5],[0,1],[0.5,1],[1,1]];" vertex="1" parent="1">
          <mxGeometry x="290" y="320" width="100" height="30" as="geometry" />
        </mxCell>
        <mxCell id="t136qoIJwkl42ZQbLCPM-24" value="" style="endArrow=classic;html=1;rounded=0;entryX=0.286;entryY=0.02;entryDx=0;entryDy=0;entryPerimeter=0;" edge="1" parent="1">
          <mxGeometry width="50" height="50" relative="1" as="geometry">
            <mxPoint x="320" y="340" as="sourcePoint" />
            <mxPoint x="322.9200000000001" y="422" as="targetPoint" />
          </mxGeometry>
        </mxCell>
        <mxCell id="t136qoIJwkl42ZQbLCPM-27" value="" style="html=1;dashed=0;whiteSpace=wrap;shape=mxgraph.dfd.externalEntity" vertex="1" parent="1">
          <mxGeometry x="-90" y="670" width="70" height="80" as="geometry" />
        </mxCell>
        <mxCell id="t136qoIJwkl42ZQbLCPM-28" value="admin" style="autosize=1;part=1;resizable=0;strokeColor=inherit;fillColor=inherit;gradientColor=inherit;" vertex="1" parent="t136qoIJwkl42ZQbLCPM-27">
          <mxGeometry width="60" height="30" relative="1" as="geometry">
            <mxPoint x="-5" y="10" as="offset" />
          </mxGeometry>
        </mxCell>
        <mxCell id="t136qoIJwkl42ZQbLCPM-29" value="" style="swimlane;html=1;startSize=20;fontStyle=0;collapsible=0;horizontal=1;swimlaneLine=1;strokeWidth=2;swimlaneFillColor=#ffffff;whiteSpace=wrap;" vertex="1" parent="1">
          <mxGeometry x="95" y="670" width="130" height="100" as="geometry" />
        </mxCell>
        <mxCell id="t136qoIJwkl42ZQbLCPM-33" value="" style="endArrow=classic;html=1;rounded=0;" edge="1" parent="t136qoIJwkl42ZQbLCPM-29">
          <mxGeometry width="50" height="50" relative="1" as="geometry">
            <mxPoint x="-115" y="39.5" as="sourcePoint" />
            <mxPoint x="-5" y="40" as="targetPoint" />
          </mxGeometry>
        </mxCell>
        <mxCell id="t136qoIJwkl42ZQbLCPM-35" value="fetch products" style="text;html=1;align=center;verticalAlign=middle;whiteSpace=wrap;rounded=0;" vertex="1" parent="t136qoIJwkl42ZQbLCPM-29">
          <mxGeometry x="25" y="35" width="60" height="30" as="geometry" />
        </mxCell>
        <mxCell id="t136qoIJwkl42ZQbLCPM-30" value="products table" style="html=1;dashed=0;whiteSpace=wrap;shape=mxgraph.dfd.dataStoreID;align=left;spacingLeft=3;points=[[0,0],[0.5,0],[1,0],[0,0.5],[1,0.5],[0,1],[0.5,1],[1,1]];" vertex="1" parent="1">
          <mxGeometry x="95" y="550" width="100" height="50" as="geometry" />
        </mxCell>
        <mxCell id="t136qoIJwkl42ZQbLCPM-32" value="" style="endArrow=classic;html=1;rounded=0;exitX=0.44;exitY=1.02;exitDx=0;exitDy=0;exitPerimeter=0;" edge="1" parent="1" source="t136qoIJwkl42ZQbLCPM-30">
          <mxGeometry width="50" height="50" relative="1" as="geometry">
            <mxPoint x="144.5" y="600" as="sourcePoint" />
            <mxPoint x="140" y="670" as="targetPoint" />
          </mxGeometry>
        </mxCell>
        <mxCell id="t136qoIJwkl42ZQbLCPM-34" value="" style="endArrow=classic;html=1;rounded=0;" edge="1" parent="1">
          <mxGeometry width="50" height="50" relative="1" as="geometry">
            <mxPoint x="90" y="730" as="sourcePoint" />
            <mxPoint x="-20" y="730" as="targetPoint" />
          </mxGeometry>
        </mxCell>
        <mxCell id="t136qoIJwkl42ZQbLCPM-39" value="" style="endArrow=classic;html=1;rounded=0;" edge="1" parent="1">
          <mxGeometry width="50" height="50" relative="1" as="geometry">
            <mxPoint x="-70" y="750" as="sourcePoint" />
            <mxPoint y="900" as="targetPoint" />
            <Array as="points">
              <mxPoint x="-70" y="900" />
            </Array>
          </mxGeometry>
        </mxCell>
        <mxCell id="t136qoIJwkl42ZQbLCPM-40" value="products and orderid" style="edgeLabel;html=1;align=center;verticalAlign=middle;resizable=0;points=[];" vertex="1" connectable="0" parent="t136qoIJwkl42ZQbLCPM-39">
          <mxGeometry x="-0.1818" y="1" relative="1" as="geometry">
            <mxPoint as="offset" />
          </mxGeometry>
        </mxCell>
        <mxCell id="t136qoIJwkl42ZQbLCPM-43" value="" style="html=1;dashed=0;whiteSpace=wrap;shape=mxgraph.dfd.dataStoreID;align=left;spacingLeft=3;points=[[0,0],[0.5,0],[1,0],[0,0.5],[1,0.5],[0,1],[0.5,1],[1,1]];" vertex="1" parent="1">
          <mxGeometry x="20" y="1130" width="100" height="30" as="geometry" />
        </mxCell>
        <mxCell id="t136qoIJwkl42ZQbLCPM-44" value="" style="endArrow=classic;html=1;rounded=0;" edge="1" parent="1">
          <mxGeometry width="50" height="50" relative="1" as="geometry">
            <mxPoint x="60" y="1070" as="sourcePoint" />
            <mxPoint x="60" y="1130" as="targetPoint" />
          </mxGeometry>
        </mxCell>
        <mxCell id="t136qoIJwkl42ZQbLCPM-45" value="" style="endArrow=classic;html=1;rounded=0;exitX=0.61;exitY=0;exitDx=0;exitDy=0;exitPerimeter=0;" edge="1" parent="1" source="t136qoIJwkl42ZQbLCPM-43">
          <mxGeometry width="50" height="50" relative="1" as="geometry">
            <mxPoint x="80" y="1150" as="sourcePoint" />
            <mxPoint x="80" y="1070" as="targetPoint" />
          </mxGeometry>
        </mxCell>
        <mxCell id="t136qoIJwkl42ZQbLCPM-48" value="" style="group" vertex="1" connectable="0" parent="1">
          <mxGeometry x="-10" y="840" width="230" height="230" as="geometry" />
        </mxCell>
        <mxCell id="t136qoIJwkl42ZQbLCPM-37" value="" style="swimlane;html=1;startSize=20;fontStyle=0;collapsible=0;horizontal=1;swimlaneLine=1;strokeWidth=2;swimlaneFillColor=#ffffff;whiteSpace=wrap;" vertex="1" parent="t136qoIJwkl42ZQbLCPM-48">
          <mxGeometry x="10" width="220" height="100" as="geometry" />
        </mxCell>
        <mxCell id="t136qoIJwkl42ZQbLCPM-51" value="process order and products" style="text;html=1;align=center;verticalAlign=middle;whiteSpace=wrap;rounded=0;" vertex="1" parent="t136qoIJwkl42ZQbLCPM-37">
          <mxGeometry x="60" y="40" width="60" height="30" as="geometry" />
        </mxCell>
        <mxCell id="t136qoIJwkl42ZQbLCPM-41" value="" style="swimlane;html=1;startSize=20;fontStyle=0;collapsible=0;horizontal=1;swimlaneLine=1;strokeWidth=2;swimlaneFillColor=#ffffff;whiteSpace=wrap;" vertex="1" parent="t136qoIJwkl42ZQbLCPM-48">
          <mxGeometry y="130" width="220" height="100" as="geometry" />
        </mxCell>
        <mxCell id="t136qoIJwkl42ZQbLCPM-42" value="update orders table" style="text;html=1;align=center;verticalAlign=middle;whiteSpace=wrap;rounded=0;" vertex="1" parent="t136qoIJwkl42ZQbLCPM-41">
          <mxGeometry x="70" y="40" width="60" height="30" as="geometry" />
        </mxCell>
        <mxCell id="t136qoIJwkl42ZQbLCPM-46" value="" style="endArrow=classic;html=1;rounded=0;" edge="1" parent="t136qoIJwkl42ZQbLCPM-48">
          <mxGeometry width="50" height="50" relative="1" as="geometry">
            <mxPoint x="70" y="100" as="sourcePoint" />
            <mxPoint x="70" y="130" as="targetPoint" />
          </mxGeometry>
        </mxCell>
        <mxCell id="t136qoIJwkl42ZQbLCPM-47" value="" style="endArrow=classic;html=1;rounded=0;" edge="1" parent="t136qoIJwkl42ZQbLCPM-48">
          <mxGeometry width="50" height="50" relative="1" as="geometry">
            <mxPoint x="110" y="100" as="sourcePoint" />
            <mxPoint x="110" y="130" as="targetPoint" />
          </mxGeometry>
        </mxCell>
        <mxCell id="t136qoIJwkl42ZQbLCPM-49" value="" style="swimlane;html=1;startSize=20;fontStyle=0;collapsible=0;horizontal=1;swimlaneLine=1;strokeWidth=2;swimlaneFillColor=#ffffff;whiteSpace=wrap;" vertex="1" parent="1">
          <mxGeometry x="280" y="840" width="220" height="100" as="geometry" />
        </mxCell>
        <mxCell id="t136qoIJwkl42ZQbLCPM-52" value="add orderdetails to db" style="text;html=1;align=center;verticalAlign=middle;whiteSpace=wrap;rounded=0;" vertex="1" parent="t136qoIJwkl42ZQbLCPM-49">
          <mxGeometry x="80" y="35" width="60" height="30" as="geometry" />
        </mxCell>
        <mxCell id="t136qoIJwkl42ZQbLCPM-50" value="order details" style="html=1;dashed=0;whiteSpace=wrap;shape=mxgraph.dfd.dataStoreID;align=left;spacingLeft=3;points=[[0,0],[0.5,0],[1,0],[0,0.5],[1,0.5],[0,1],[0.5,1],[1,1]];" vertex="1" parent="1">
          <mxGeometry x="630" y="860" width="100" height="30" as="geometry" />
        </mxCell>
      </root>
    </mxGraphModel>
  </diagram>
</mxfile>
